<?xml version="1.0" standalone="no"?>
<!DOCTYPE svg PUBLIC "-//W3C//DTD SVG 20010904//EN"
 "http://www.w3.org/TR/2001/REC-SVG-20010904/DTD/svg10.dtd">
<svg version="1.0" xmlns="http://www.w3.org/2000/svg"
 width="512.000000pt" height="512.000000pt" viewBox="0 0 512.000000 512.000000"
 preserveAspectRatio="xMidYMid meet">

<g transform="translate(0.000000,512.000000) scale(0.100000,-0.100000)"
fill="#000000" stroke="none">
<path d="M2379 5116 c-2 -2 -38 -7 -79 -10 -101 -9 -119 -12 -235 -36 -128
-26 -140 -28 -167 -39 -13 -5 -25 -9 -28 -9 -19 0 -173 -51 -262 -87 -654
-267 -1156 -769 -1423 -1423 -37 -91 -81 -222 -86 -257 -1 -5 -5 -20 -10 -33
-5 -12 -11 -33 -13 -45 -3 -12 -8 -33 -11 -47 -46 -192 -60 -327 -60 -570 0
-243 14 -378 60 -570 3 -14 8 -35 11 -47 2 -12 9 -35 15 -50 6 -16 10 -28 9
-28 -7 0 49 -167 85 -256 137 -335 310 -595 569 -855 226 -225 427 -368 711
-505 118 -57 342 -141 408 -155 10 -2 27 -6 37 -9 38 -12 230 -52 285 -60 199
-27 532 -27 730 0 75 11 223 43 293 64 18 5 33 9 35 9 10 -2 173 52 259 87
653 267 1156 770 1423 1423 36 89 81 224 85 254 1 4 6 22 11 40 17 55 20 70
40 168 36 173 44 263 44 490 0 228 -8 316 -45 495 -26 130 -28 139 -41 172 -6
16 -10 28 -9 28 7 0 -49 167 -85 257 -265 647 -752 1139 -1405 1416 -73 31
-240 89 -280 97 -3 1 -14 4 -25 8 -11 3 -31 8 -45 11 -14 3 -36 8 -50 11 -55
13 -178 36 -220 41 -25 3 -56 8 -70 10 -32 6 -456 14 -461 10z m431 -319 c19
-3 55 -8 80 -12 25 -4 54 -8 65 -10 63 -9 104 -18 140 -27 22 -6 45 -12 52
-14 67 -13 292 -100 410 -159 182 -90 323 -183 469 -308 121 -103 132 -116
116 -126 -7 -4 -60 -54 -120 -111 -133 -129 -268 -259 -527 -505 -303 -288
-409 -390 -535 -511 -63 -61 -421 -403 -795 -759 -374 -357 -727 -694 -785
-749 -385 -369 -473 -451 -483 -451 -17 0 -130 139 -208 255 -94 140 -208 371
-259 525 -23 69 -43 131 -44 138 -2 7 -8 30 -14 52 -6 22 -13 57 -16 78 -10
63 -17 109 -22 131 -26 125 -25 525 1 658 3 16 7 40 9 55 9 63 18 110 28 148
6 22 12 45 14 52 13 67 100 292 159 410 144 291 306 500 550 710 143 124 285
218 468 308 118 59 343 146 410 159 7 2 30 8 52 14 38 10 85 19 148 28 15 2
39 6 55 9 15 3 61 8 102 11 41 3 77 8 79 10 6 5 355 -3 401 -9z m1622 -988
c84 -122 209 -377 258 -523 23 -70 43 -132 44 -139 2 -7 8 -30 14 -52 10 -38
19 -85 28 -148 2 -15 6 -39 9 -55 26 -133 27 -525 1 -658 -5 -23 -13 -72 -22
-131 -3 -21 -10 -56 -16 -78 -6 -22 -12 -45 -14 -52 -12 -63 -98 -287 -153
-400 -221 -453 -568 -801 -1024 -1028 -118 -59 -343 -146 -410 -159 -7 -2 -30
-8 -52 -14 -22 -6 -57 -13 -78 -16 -59 -9 -108 -17 -131 -22 -134 -26 -515
-25 -658 1 -16 3 -40 7 -55 9 -63 9 -110 18 -148 28 -22 6 -45 12 -52 14 -7 1
-69 21 -138 44 -211 70 -524 240 -665 360 l-35 29 110 108 c61 60 162 157 225
218 148 141 308 293 445 425 61 58 195 186 299 285 104 99 203 194 221 210 17
17 109 104 204 195 96 91 521 497 945 902 424 406 776 736 781 735 6 -2 36
-41 67 -88z"/>
</g>
</svg>
